<?xml version="1.0" encoding="us-ascii" standalone="no"?><svg xmlns="http://www.w3.org/2000/svg" xmlns:xlink="http://www.w3.org/1999/xlink" contentStyleType="text/css" height="602.7083px" preserveAspectRatio="none" style="width:2272px;height:602px;background:#FFFFFF;" version="1.1" viewBox="0 0 2272 602" width="2272.1875px" zoomAndPan="magnify"><defs/><g><text fill="#000000" font-family="sans-serif" font-size="16.0417" font-weight="bold" lengthAdjust="spacing" textLength="462.9167" x="896.901" y="26.3486">03-&#24037;&#20316;&#27969;&#20013;&#24515; &#8212; &#20869;&#37096;&#34920;&#19982;&#36328;&#27169;&#22359;&#24341;&#29992; (&#34394;&#32447;=&#36923;&#36753;/&#23454;&#32447;=&#29289;&#29702;)</text><!--cluster 03-?????--><g id="cluster_03-&#24037;&#20316;&#27969;&#20013;&#24515;"><rect fill="#F3E5F5" height="396.4583" rx="2.8646" ry="2.8646" style="stroke:#000000;stroke-width:1.71875;" width="753.9583" x="203.3854" y="199.7152"/><text fill="#000000" font-family="sans-serif" font-size="16.0417" font-weight="bold" lengthAdjust="spacing" textLength="110" x="525.3646" y="216.8971">03-&#24037;&#20316;&#27969;&#20013;&#24515;</text></g><!--cluster ??????????--><g id="cluster_&#22806;&#37096;&#27169;&#22359;&#65288;&#24341;&#29992;&#21344;&#20301;&#65289;"><rect fill="#FAFAFA" height="120.3125" rx="2.8646" ry="2.8646" style="stroke:#000000;stroke-width:1.71875;" width="2140.4167" x="125.4687" y="50.7568"/><text fill="#000000" font-family="sans-serif" font-size="16.0417" font-weight="bold" lengthAdjust="spacing" textLength="160.4167" x="1115.4688" y="67.9387">&#22806;&#37096;&#27169;&#22359;&#65288;&#24341;&#29992;&#21344;&#20301;&#65289;</text></g><!--class BIZ_PROCESS_MAP--><g id="elem_BIZ_PROCESS_MAP"><rect codeLine="9" fill="#F1F1F1" height="162.4577" id="BIZ_PROCESS_MAP" rx="2.8646" ry="2.8646" style="stroke:#181818;stroke-width:0.5729166666666666;" width="209.6875" x="737.9167" y="230.6527"/><ellipse cx="773.6667" cy="248.986" fill="#ADD1B2" rx="12.6042" ry="12.6042" style="stroke:#181818;stroke-width:1.1458333333333333;"/><path d="M778.3753,255.861 L769.5309,255.861 L769.5309,241.6634 L778.3753,241.6634 L778.3753,244.1341 L772.3418,244.1341 L772.3418,247.1956 L777.8024,247.1956 L777.8024,249.6663 L772.3418,249.6663 L772.3418,253.3903 L778.3753,253.3903 L778.3753,255.861 Z " fill="#000000"/><text fill="#000000" font-family="Microsoft YaHei" font-size="13.75" lengthAdjust="spacing" textLength="131.7708" x="793.8333" y="253.7461">BIZ_PROCESS_MAP</text><line style="stroke:#181818;stroke-width:0.5729166666666666;" x1="739.0625" x2="946.4583" y1="267.3193" y2="267.3193"/><text fill="#000000" font-family="sans-serif" font-size="16.0417" lengthAdjust="spacing" textLength="44.6875" x="760.8333" y="310.0497">PK: id</text><ellipse cx="750.5208" cy="324.8885" fill="none" rx="3.4375" ry="3.4375" style="stroke:#038048;stroke-width:1.1458333333333333;"/><text fill="#000000" font-family="sans-serif" font-size="16.0417" lengthAdjust="spacing" textLength="107.7083" x="760.8333" y="328.7232">business_key</text><ellipse cx="750.5208" cy="343.562" fill="none" rx="3.4375" ry="3.4375" style="stroke:#038048;stroke-width:1.1458333333333333;"/><text fill="#000000" font-family="sans-serif" font-size="16.0417" lengthAdjust="spacing" textLength="44.6875" x="760.8333" y="347.3967">biz_id</text><ellipse cx="750.5208" cy="362.2355" fill="none" rx="3.4375" ry="3.4375" style="stroke:#038048;stroke-width:1.1458333333333333;"/><text fill="#000000" font-family="sans-serif" font-size="16.0417" lengthAdjust="spacing" textLength="179.8958" x="760.8333" y="366.0703">process_definition_key</text><ellipse cx="750.5208" cy="380.909" fill="none" rx="3.4375" ry="3.4375" style="stroke:#038048;stroke-width:1.1458333333333333;"/><text fill="#000000" font-family="sans-serif" font-size="16.0417" lengthAdjust="spacing" textLength="161.5625" x="760.8333" y="384.7438">process_instance_id</text><line style="stroke:#181818;stroke-width:1.1458333333333333;stroke-dasharray:1.0,2.0;" x1="739.0625" x2="786.6146" y1="285.8228" y2="285.8228"/><text fill="#000000" font-family="sans-serif" font-size="16.0417" lengthAdjust="spacing" textLength="112.2917" x="786.6146" y="290.8033">&#19994;&#21153;&#27969;&#31243;&#26144;&#23556;&#34920;</text><line style="stroke:#181818;stroke-width:1.1458333333333333;stroke-dasharray:1.0,2.0;" x1="898.9062" x2="946.4583" y1="285.8228" y2="285.8228"/></g><!--class WF_NODE_CANDIDATE_CONF--><g id="elem_WF_NODE_CANDIDATE_CONF"><rect codeLine="17" fill="#F1F1F1" height="125.1107" id="WF_NODE_CANDIDATE_CONF" rx="2.8646" ry="2.8646" style="stroke:#181818;stroke-width:0.5729166666666666;" width="234.8958" x="462.9167" y="249.5589"/><ellipse cx="480.1042" cy="267.8923" fill="#ADD1B2" rx="12.6042" ry="12.6042" style="stroke:#181818;stroke-width:1.1458333333333333;"/><path d="M484.8128,274.7673 L475.9684,274.7673 L475.9684,260.5697 L484.8128,260.5697 L484.8128,263.0404 L478.7793,263.0404 L478.7793,266.1019 L484.2399,266.1019 L484.2399,268.5726 L478.7793,268.5726 L478.7793,272.2965 L484.8128,272.2965 L484.8128,274.7673 Z " fill="#000000"/><text fill="#000000" font-family="Microsoft YaHei" font-size="13.75" lengthAdjust="spacing" textLength="198.2292" x="496.1458" y="272.6524">WF_NODE_CANDIDATE_CONF</text><line style="stroke:#181818;stroke-width:0.5729166666666666;" x1="464.0625" x2="696.6667" y1="286.2256" y2="286.2256"/><text fill="#000000" font-family="sans-serif" font-size="16.0417" lengthAdjust="spacing" textLength="44.6875" x="485.8333" y="328.956">PK: id</text><ellipse cx="475.5208" cy="343.7948" fill="none" rx="3.4375" ry="3.4375" style="stroke:#038048;stroke-width:1.1458333333333333;"/><text fill="#000000" font-family="sans-serif" font-size="16.0417" lengthAdjust="spacing" textLength="179.8958" x="485.8333" y="347.6295">process_definition_key</text><ellipse cx="475.5208" cy="362.4683" fill="none" rx="3.4375" ry="3.4375" style="stroke:#038048;stroke-width:1.1458333333333333;"/><text fill="#000000" font-family="sans-serif" font-size="16.0417" lengthAdjust="spacing" textLength="76.7708" x="485.8333" y="366.303">node_key</text><line style="stroke:#181818;stroke-width:1.1458333333333333;stroke-dasharray:1.0,2.0;" x1="464.0625" x2="500.1562" y1="304.729" y2="304.729"/><text fill="#000000" font-family="sans-serif" font-size="16.0417" lengthAdjust="spacing" textLength="160.4167" x="500.1562" y="309.7096">&#27969;&#31243;&#33410;&#28857;&#20505;&#36873;&#20154;&#37197;&#32622;&#34920;</text><line style="stroke:#181818;stroke-width:1.1458333333333333;stroke-dasharray:1.0,2.0;" x1="660.5729" x2="696.6667" y1="304.729" y2="304.729"/></g><!--class WF_NODE_FORM_CONF--><g id="elem_WF_NODE_FORM_CONF"><rect codeLine="23" fill="#F1F1F1" height="125.1107" id="WF_NODE_FORM_CONF" rx="2.8646" ry="2.8646" style="stroke:#181818;stroke-width:0.5729166666666666;" width="209.6875" x="475.5208" y="462.111"/><ellipse cx="499.4115" cy="480.4443" fill="#ADD1B2" rx="12.6042" ry="12.6042" style="stroke:#181818;stroke-width:1.1458333333333333;"/><path d="M504.1201,487.3193 L495.2757,487.3193 L495.2757,473.1217 L504.1201,473.1217 L504.1201,475.5924 L498.0866,475.5924 L498.0866,478.654 L503.5472,478.654 L503.5472,481.1247 L498.0866,481.1247 L498.0866,484.8486 L504.1201,484.8486 L504.1201,487.3193 Z " fill="#000000"/><text fill="#000000" font-family="Microsoft YaHei" font-size="13.75" lengthAdjust="spacing" textLength="158.125" x="516.9427" y="485.2045">WF_NODE_FORM_CONF</text><line style="stroke:#181818;stroke-width:0.5729166666666666;" x1="476.6667" x2="684.0625" y1="498.7777" y2="498.7777"/><text fill="#000000" font-family="sans-serif" font-size="16.0417" lengthAdjust="spacing" textLength="44.6875" x="498.4375" y="541.5081">PK: id</text><ellipse cx="488.125" cy="556.3468" fill="none" rx="3.4375" ry="3.4375" style="stroke:#038048;stroke-width:1.1458333333333333;"/><text fill="#000000" font-family="sans-serif" font-size="16.0417" lengthAdjust="spacing" textLength="179.8958" x="498.4375" y="560.1816">process_definition_key</text><ellipse cx="488.125" cy="575.0203" fill="none" rx="3.4375" ry="3.4375" style="stroke:#038048;stroke-width:1.1458333333333333;"/><text fill="#000000" font-family="sans-serif" font-size="16.0417" lengthAdjust="spacing" textLength="76.7708" x="498.4375" y="578.8551">node_key</text><line style="stroke:#181818;stroke-width:1.1458333333333333;stroke-dasharray:1.0,2.0;" x1="476.6667" x2="508.1771" y1="517.2811" y2="517.2811"/><text fill="#000000" font-family="sans-serif" font-size="16.0417" lengthAdjust="spacing" textLength="144.375" x="508.1771" y="522.2617">&#27969;&#31243;&#33410;&#28857;&#34920;&#21333;&#37197;&#32622;&#34920;</text><line style="stroke:#181818;stroke-width:1.1458333333333333;stroke-dasharray:1.0,2.0;" x1="652.5521" x2="684.0625" y1="517.2811" y2="517.2811"/></g><!--class WF_TIMEOUT_RULE--><g id="elem_WF_TIMEOUT_RULE"><rect codeLine="29" fill="#F1F1F1" height="125.1107" id="WF_TIMEOUT_RULE" rx="2.8646" ry="2.8646" style="stroke:#181818;stroke-width:0.5729166666666666;" width="209.6875" x="213.125" y="249.5589"/><ellipse cx="249.3906" cy="267.8923" fill="#ADD1B2" rx="12.6042" ry="12.6042" style="stroke:#181818;stroke-width:1.1458333333333333;"/><path d="M254.0993,274.7673 L245.2549,274.7673 L245.2549,260.5697 L254.0993,260.5697 L254.0993,263.0404 L248.0658,263.0404 L248.0658,266.1019 L253.5264,266.1019 L253.5264,268.5726 L248.0658,268.5726 L248.0658,272.2965 L254.0993,272.2965 L254.0993,274.7673 Z " fill="#000000"/><text fill="#000000" font-family="Microsoft YaHei" font-size="13.75" lengthAdjust="spacing" textLength="130.625" x="269.6719" y="272.6524">WF_TIMEOUT_RULE</text><line style="stroke:#181818;stroke-width:0.5729166666666666;" x1="214.2708" x2="421.6667" y1="286.2256" y2="286.2256"/><text fill="#000000" font-family="sans-serif" font-size="16.0417" lengthAdjust="spacing" textLength="44.6875" x="236.0417" y="328.956">PK: id</text><ellipse cx="225.7292" cy="343.7948" fill="none" rx="3.4375" ry="3.4375" style="stroke:#038048;stroke-width:1.1458333333333333;"/><text fill="#000000" font-family="sans-serif" font-size="16.0417" lengthAdjust="spacing" textLength="179.8958" x="236.0417" y="347.6295">process_definition_key</text><ellipse cx="225.7292" cy="362.4683" fill="none" rx="3.4375" ry="3.4375" style="stroke:#038048;stroke-width:1.1458333333333333;"/><text fill="#000000" font-family="sans-serif" font-size="16.0417" lengthAdjust="spacing" textLength="76.7708" x="236.0417" y="366.303">node_key</text><line style="stroke:#181818;stroke-width:1.1458333333333333;stroke-dasharray:1.0,2.0;" x1="214.2708" x2="261.8229" y1="304.729" y2="304.729"/><text fill="#000000" font-family="sans-serif" font-size="16.0417" lengthAdjust="spacing" textLength="112.2917" x="261.8229" y="309.7096">&#27969;&#31243;&#36229;&#26102;&#35268;&#21017;&#34920;</text><line style="stroke:#181818;stroke-width:1.1458333333333333;stroke-dasharray:1.0,2.0;" x1="374.1146" x2="421.6667" y1="304.729" y2="304.729"/></g><!--class ACT_RE_PROCDEF--><g id="elem_ACT_RE_PROCDEF"><rect codeLine="38" fill="#F1F1F1" height="80.647" id="ACT_RE_PROCDEF" rx="2.8646" ry="2.8646" style="stroke:#181818;stroke-width:0.5729166666666666;" width="200.5208" x="135.2083" y="81.6943"/><ellipse cx="152.3958" cy="103.4294" fill="#ADD1B2" rx="12.6042" ry="12.6042" style="stroke:#181818;stroke-width:1.1458333333333333;"/><path d="M157.1045,110.3044 L148.2601,110.3044 L148.2601,96.1068 L157.1045,96.1068 L157.1045,98.5775 L151.071,98.5775 L151.071,101.639 L156.5316,101.639 L156.5316,104.1097 L151.071,104.1097 L151.071,107.8337 L157.1045,107.8337 L157.1045,110.3044 Z " fill="#000000"/><text fill="#000000" font-family="sans-serif" font-size="13.75" font-style="italic" lengthAdjust="spacing" textLength="168.4375" x="166.1458" y="100.1866">&#171;09-Flowable&#24341;&#25806;(&#21482;&#35835;)&#187;</text><text fill="#000000" font-family="Microsoft YaHei" font-size="13.75" lengthAdjust="spacing" textLength="123.75" x="188.4896" y="116.1924">ACT_RE_PROCDEF</text><line style="stroke:#181818;stroke-width:0.5729166666666666;" x1="136.3542" x2="334.5833" y1="125.1644" y2="125.1644"/><line style="stroke:#181818;stroke-width:1.1458333333333333;stroke-dasharray:1.0,2.0;" x1="136.3542" x2="233.1771" y1="143.6678" y2="143.6678"/><text fill="#000000" font-family="sans-serif" font-size="16.0417" lengthAdjust="spacing" textLength="4.5833" x="233.1771" y="148.6484">&#160;</text><line style="stroke:#181818;stroke-width:1.1458333333333333;stroke-dasharray:1.0,2.0;" x1="237.7604" x2="334.5833" y1="143.6678" y2="143.6678"/></g><!--class ACT_RU_EXECUTION--><g id="elem_ACT_RU_EXECUTION"><rect codeLine="41" fill="#F1F1F1" height="80.647" id="ACT_RU_EXECUTION" rx="2.8646" ry="2.8646" style="stroke:#181818;stroke-width:0.5729166666666666;" width="200.5208" x="960.2083" y="81.6943"/><ellipse cx="977.3958" cy="103.4294" fill="#ADD1B2" rx="12.6042" ry="12.6042" style="stroke:#181818;stroke-width:1.1458333333333333;"/><path d="M982.1045,110.3044 L973.2601,110.3044 L973.2601,96.1068 L982.1045,96.1068 L982.1045,98.5775 L976.071,98.5775 L976.071,101.639 L981.5316,101.639 L981.5316,104.1097 L976.071,104.1097 L976.071,107.8337 L982.1045,107.8337 L982.1045,110.3044 Z " fill="#000000"/><text fill="#000000" font-family="sans-serif" font-size="13.75" font-style="italic" lengthAdjust="spacing" textLength="168.4375" x="991.1458" y="100.1866">&#171;09-Flowable&#24341;&#25806;(&#21482;&#35835;)&#187;</text><text fill="#000000" font-family="Microsoft YaHei" font-size="13.75" lengthAdjust="spacing" textLength="137.5" x="1006.6146" y="116.1924">ACT_RU_EXECUTION</text><line style="stroke:#181818;stroke-width:0.5729166666666666;" x1="961.3542" x2="1159.5833" y1="125.1644" y2="125.1644"/><line style="stroke:#181818;stroke-width:1.1458333333333333;stroke-dasharray:1.0,2.0;" x1="961.3542" x2="1058.1771" y1="143.6678" y2="143.6678"/><text fill="#000000" font-family="sans-serif" font-size="16.0417" lengthAdjust="spacing" textLength="4.5833" x="1058.1771" y="148.6484">&#160;</text><line style="stroke:#181818;stroke-width:1.1458333333333333;stroke-dasharray:1.0,2.0;" x1="1062.7604" x2="1159.5833" y1="143.6678" y2="143.6678"/></g><!--class BIZ_FILE_REL--><g id="elem_BIZ_FILE_REL"><rect codeLine="44" fill="#F1F1F1" height="80.647" id="BIZ_FILE_REL" rx="2.8646" ry="2.8646" style="stroke:#181818;stroke-width:0.5729166666666666;" width="153.5417" x="765.9896" y="81.6943"/><ellipse cx="783.1771" cy="103.4294" fill="#ADD1B2" rx="12.6042" ry="12.6042" style="stroke:#181818;stroke-width:1.1458333333333333;"/><path d="M787.8857,110.3044 L779.0413,110.3044 L779.0413,96.1068 L787.8857,96.1068 L787.8857,98.5775 L781.8522,98.5775 L781.8522,101.639 L787.3128,101.639 L787.3128,104.1097 L781.8522,104.1097 L781.8522,107.8337 L787.8857,107.8337 L787.8857,110.3044 Z " fill="#000000"/><text fill="#000000" font-family="sans-serif" font-size="13.75" font-style="italic" lengthAdjust="spacing" textLength="121.4583" x="796.9271" y="100.1866">&#171;02-&#31995;&#32479;&#27835;&#29702;&#20013;&#24515;&#187;</text><text fill="#000000" font-family="Microsoft YaHei" font-size="13.75" lengthAdjust="spacing" textLength="89.375" x="812.9688" y="116.1924">BIZ_FILE_REL</text><line style="stroke:#181818;stroke-width:0.5729166666666666;" x1="767.1354" x2="918.3854" y1="125.1644" y2="125.1644"/><line style="stroke:#181818;stroke-width:1.1458333333333333;stroke-dasharray:1.0,2.0;" x1="767.1354" x2="783.75" y1="143.6678" y2="143.6678"/><text fill="#000000" font-family="sans-serif" font-size="16.0417" lengthAdjust="spacing" textLength="118.0208" x="783.75" y="148.6484">&#19994;&#21153;-&#38468;&#20214;&#20851;&#32852;&#34920;</text><line style="stroke:#181818;stroke-width:1.1458333333333333;stroke-dasharray:1.0,2.0;" x1="901.7708" x2="918.3854" y1="143.6678" y2="143.6678"/></g><!--class CUST_LEAD--><g id="elem_CUST_LEAD"><rect codeLine="47" fill="#F1F1F1" height="80.647" id="CUST_LEAD" rx="2.8646" ry="2.8646" style="stroke:#181818;stroke-width:0.5729166666666666;" width="126.0417" x="599.8438" y="81.6943"/><ellipse cx="617.0313" cy="103.4294" fill="#ADD1B2" rx="12.6042" ry="12.6042" style="stroke:#181818;stroke-width:1.1458333333333333;"/><path d="M621.7399,110.3044 L612.8955,110.3044 L612.8955,96.1068 L621.7399,96.1068 L621.7399,98.5775 L615.7064,98.5775 L615.7064,101.639 L621.167,101.639 L621.167,104.1097 L615.7064,104.1097 L615.7064,107.8337 L621.7399,107.8337 L621.7399,110.3044 Z " fill="#000000"/><text fill="#000000" font-family="sans-serif" font-size="13.75" font-style="italic" lengthAdjust="spacing" textLength="93.9583" x="630.7813" y="100.1866">&#171;05-&#23458;&#25143;&#33829;&#38144;&#187;</text><text fill="#000000" font-family="Microsoft YaHei" font-size="13.75" lengthAdjust="spacing" textLength="79.0625" x="638.2292" y="116.1924">CUST_LEAD</text><line style="stroke:#181818;stroke-width:0.5729166666666666;" x1="600.9896" x2="724.7396" y1="125.1644" y2="125.1644"/><line style="stroke:#181818;stroke-width:1.1458333333333333;stroke-dasharray:1.0,2.0;" x1="600.9896" x2="622.7604" y1="143.6678" y2="143.6678"/><text fill="#000000" font-family="sans-serif" font-size="16.0417" lengthAdjust="spacing" textLength="80.2083" x="622.7604" y="148.6484">&#23458;&#25143;&#32447;&#32034;&#34920;</text><line style="stroke:#181818;stroke-width:1.1458333333333333;stroke-dasharray:1.0,2.0;" x1="702.9688" x2="724.7396" y1="143.6678" y2="143.6678"/></g><!--class LEAD_IMPORT_BATCH--><g id="elem_LEAD_IMPORT_BATCH"><rect codeLine="50" fill="#F1F1F1" height="80.647" id="LEAD_IMPORT_BATCH" rx="2.8646" ry="2.8646" style="stroke:#181818;stroke-width:0.5729166666666666;" width="183.3333" x="376.4063" y="81.6943"/><ellipse cx="393.5938" cy="103.4294" fill="#ADD1B2" rx="12.6042" ry="12.6042" style="stroke:#181818;stroke-width:1.1458333333333333;"/><path d="M398.3024,110.3044 L389.458,110.3044 L389.458,96.1068 L398.3024,96.1068 L398.3024,98.5775 L392.2689,98.5775 L392.2689,101.639 L397.7295,101.639 L397.7295,104.1097 L392.2689,104.1097 L392.2689,107.8337 L398.3024,107.8337 L398.3024,110.3044 Z " fill="#000000"/><text fill="#000000" font-family="sans-serif" font-size="13.75" font-style="italic" lengthAdjust="spacing" textLength="93.9583" x="435.9896" y="100.1866">&#171;05-&#23458;&#25143;&#33829;&#38144;&#187;</text><text fill="#000000" font-family="Microsoft YaHei" font-size="13.75" lengthAdjust="spacing" textLength="146.6667" x="409.6354" y="116.1924">LEAD_IMPORT_BATCH</text><line style="stroke:#181818;stroke-width:0.5729166666666666;" x1="377.5521" x2="558.5938" y1="125.1644" y2="125.1644"/><line style="stroke:#181818;stroke-width:1.1458333333333333;stroke-dasharray:1.0,2.0;" x1="377.5521" x2="411.9271" y1="143.6678" y2="143.6678"/><text fill="#000000" font-family="sans-serif" font-size="16.0417" lengthAdjust="spacing" textLength="112.2917" x="411.9271" y="148.6484">&#32447;&#32034;&#23548;&#20837;&#25209;&#27425;&#34920;</text><line style="stroke:#181818;stroke-width:1.1458333333333333;stroke-dasharray:1.0,2.0;" x1="524.2188" x2="558.5938" y1="143.6678" y2="143.6678"/></g><!--class LOAN_APPLY--><g id="elem_LOAN_APPLY"><rect codeLine="53" fill="#F1F1F1" height="80.647" id="LOAN_APPLY" rx="2.8646" ry="2.8646" style="stroke:#181818;stroke-width:0.5729166666666666;" width="126.0417" x="2130.6771" y="81.6943"/><ellipse cx="2147.8646" cy="103.4294" fill="#ADD1B2" rx="12.6042" ry="12.6042" style="stroke:#181818;stroke-width:1.1458333333333333;"/><path d="M2152.5732,110.3044 L2143.7288,110.3044 L2143.7288,96.1068 L2152.5732,96.1068 L2152.5732,98.5775 L2146.5397,98.5775 L2146.5397,101.639 L2152.0003,101.639 L2152.0003,104.1097 L2146.5397,104.1097 L2146.5397,107.8337 L2152.5732,107.8337 L2152.5732,110.3044 Z " fill="#000000"/><text fill="#000000" font-family="sans-serif" font-size="13.75" font-style="italic" lengthAdjust="spacing" textLength="93.9583" x="2161.6146" y="100.1866">&#171;06-&#19994;&#21153;&#30003;&#35831;&#187;</text><text fill="#000000" font-family="Microsoft YaHei" font-size="13.75" lengthAdjust="spacing" textLength="85.9375" x="2165.625" y="116.1924">LOAN_APPLY</text><line style="stroke:#181818;stroke-width:0.5729166666666666;" x1="2131.8229" x2="2255.5729" y1="125.1644" y2="125.1644"/><line style="stroke:#181818;stroke-width:1.1458333333333333;stroke-dasharray:1.0,2.0;" x1="2131.8229" x2="2137.5521" y1="143.6678" y2="143.6678"/><text fill="#000000" font-family="sans-serif" font-size="16.0417" lengthAdjust="spacing" textLength="112.2917" x="2137.5521" y="148.6484">&#36164;&#20135;&#25237;&#25918;&#30003;&#35831;&#34920;</text><line style="stroke:#181818;stroke-width:1.1458333333333333;stroke-dasharray:1.0,2.0;" x1="2249.8438" x2="2255.5729" y1="143.6678" y2="143.6678"/></g><!--class PERF_ALLOC_ADJUST_APPLY--><g id="elem_PERF_ALLOC_ADJUST_APPLY"><rect codeLine="56" fill="#F1F1F1" height="80.647" id="PERF_ALLOC_ADJUST_APPLY" rx="2.8646" ry="2.8646" style="stroke:#181818;stroke-width:0.5729166666666666;" width="228.0208" x="1861.9792" y="81.6943"/><ellipse cx="1879.1667" cy="103.4294" fill="#ADD1B2" rx="12.6042" ry="12.6042" style="stroke:#181818;stroke-width:1.1458333333333333;"/><path d="M1883.8753,110.3044 L1875.0309,110.3044 L1875.0309,96.1068 L1883.8753,96.1068 L1883.8753,98.5775 L1877.8418,98.5775 L1877.8418,101.639 L1883.3024,101.639 L1883.3024,104.1097 L1877.8418,104.1097 L1877.8418,107.8337 L1883.8753,107.8337 L1883.8753,110.3044 Z " fill="#000000"/><text fill="#000000" font-family="sans-serif" font-size="13.75" font-style="italic" lengthAdjust="spacing" textLength="93.9583" x="1943.9062" y="100.1866">&#171;07-&#32489;&#25928;&#35745;&#31639;&#187;</text><text fill="#000000" font-family="Microsoft YaHei" font-size="13.75" lengthAdjust="spacing" textLength="191.3542" x="1895.2083" y="116.1924">PERF_ALLOC_ADJUST_APPLY</text><line style="stroke:#181818;stroke-width:0.5729166666666666;" x1="1863.125" x2="2088.8542" y1="125.1644" y2="125.1644"/><line style="stroke:#181818;stroke-width:1.1458333333333333;stroke-dasharray:1.0,2.0;" x1="1863.125" x2="1911.8229" y1="143.6678" y2="143.6678"/><text fill="#000000" font-family="sans-serif" font-size="16.0417" lengthAdjust="spacing" textLength="128.3333" x="1911.8229" y="148.6484">&#20998;&#37197;&#20851;&#31995;&#35843;&#25972;&#30003;&#35831;</text><line style="stroke:#181818;stroke-width:1.1458333333333333;stroke-dasharray:1.0,2.0;" x1="2040.1562" x2="2088.8542" y1="143.6678" y2="143.6678"/></g><!--class PERF_TARGET_ADJUST_APPLY--><g id="elem_PERF_TARGET_ADJUST_APPLY"><rect codeLine="59" fill="#F1F1F1" height="80.647" id="PERF_TARGET_ADJUST_APPLY" rx="2.8646" ry="2.8646" style="stroke:#181818;stroke-width:0.5729166666666666;" width="239.4792" x="1582.3958" y="81.6943"/><ellipse cx="1599.5833" cy="103.4294" fill="#ADD1B2" rx="12.6042" ry="12.6042" style="stroke:#181818;stroke-width:1.1458333333333333;"/><path d="M1604.292,110.3044 L1595.4476,110.3044 L1595.4476,96.1068 L1604.292,96.1068 L1604.292,98.5775 L1598.2585,98.5775 L1598.2585,101.639 L1603.7191,101.639 L1603.7191,104.1097 L1598.2585,104.1097 L1598.2585,107.8337 L1604.292,107.8337 L1604.292,110.3044 Z " fill="#000000"/><text fill="#000000" font-family="sans-serif" font-size="13.75" font-style="italic" lengthAdjust="spacing" textLength="93.9583" x="1670.0521" y="100.1866">&#171;07-&#32489;&#25928;&#35745;&#31639;&#187;</text><text fill="#000000" font-family="Microsoft YaHei" font-size="13.75" lengthAdjust="spacing" textLength="202.8125" x="1615.625" y="116.1924">PERF_TARGET_ADJUST_APPLY</text><line style="stroke:#181818;stroke-width:0.5729166666666666;" x1="1583.5417" x2="1820.7292" y1="125.1644" y2="125.1644"/><line style="stroke:#181818;stroke-width:1.1458333333333333;stroke-dasharray:1.0,2.0;" x1="1583.5417" x2="1654.0104" y1="143.6678" y2="143.6678"/><text fill="#000000" font-family="sans-serif" font-size="16.0417" lengthAdjust="spacing" textLength="96.25" x="1654.0104" y="148.6484">&#30446;&#26631;&#20462;&#27491;&#30003;&#35831;</text><line style="stroke:#181818;stroke-width:1.1458333333333333;stroke-dasharray:1.0,2.0;" x1="1750.2604" x2="1820.7292" y1="143.6678" y2="143.6678"/></g><!--class SUPPORT_REQUEST--><g id="elem_SUPPORT_REQUEST"><rect codeLine="62" fill="#F1F1F1" height="80.647" id="SUPPORT_REQUEST" rx="2.8646" ry="2.8646" style="stroke:#181818;stroke-width:0.5729166666666666;" width="174.1667" x="1367.5521" y="81.6943"/><ellipse cx="1384.7396" cy="103.4294" fill="#ADD1B2" rx="12.6042" ry="12.6042" style="stroke:#181818;stroke-width:1.1458333333333333;"/><path d="M1389.4482,110.3044 L1380.6038,110.3044 L1380.6038,96.1068 L1389.4482,96.1068 L1389.4482,98.5775 L1383.4147,98.5775 L1383.4147,101.639 L1388.8753,101.639 L1388.8753,104.1097 L1383.4147,104.1097 L1383.4147,107.8337 L1389.4482,107.8337 L1389.4482,110.3044 Z " fill="#000000"/><text fill="#000000" font-family="sans-serif" font-size="13.75" font-style="italic" lengthAdjust="spacing" textLength="93.9583" x="1422.5521" y="100.1866">&#171;06-&#19994;&#21153;&#30003;&#35831;&#187;</text><text fill="#000000" font-family="Microsoft YaHei" font-size="13.75" lengthAdjust="spacing" textLength="137.5" x="1400.7813" y="116.1924">SUPPORT_REQUEST</text><line style="stroke:#181818;stroke-width:0.5729166666666666;" x1="1368.6979" x2="1540.5729" y1="125.1644" y2="125.1644"/><line style="stroke:#181818;stroke-width:1.1458333333333333;stroke-dasharray:1.0,2.0;" x1="1368.6979" x2="1398.4896" y1="143.6678" y2="143.6678"/><text fill="#000000" font-family="sans-serif" font-size="16.0417" lengthAdjust="spacing" textLength="112.2917" x="1398.4896" y="148.6484">&#20013;&#22330;&#25903;&#25345;&#30003;&#35831;&#34920;</text><line style="stroke:#181818;stroke-width:1.1458333333333333;stroke-dasharray:1.0,2.0;" x1="1510.7813" x2="1540.5729" y1="143.6678" y2="143.6678"/></g><!--class TOUCH_TASK--><g id="elem_TOUCH_TASK"><rect codeLine="65" fill="#F1F1F1" height="80.647" id="TOUCH_TASK" rx="2.8646" ry="2.8646" style="stroke:#181818;stroke-width:0.5729166666666666;" width="126.0417" x="1201.4063" y="81.6943"/><ellipse cx="1218.5938" cy="103.4294" fill="#ADD1B2" rx="12.6042" ry="12.6042" style="stroke:#181818;stroke-width:1.1458333333333333;"/><path d="M1223.3024,110.3044 L1214.458,110.3044 L1214.458,96.1068 L1223.3024,96.1068 L1223.3024,98.5775 L1217.2689,98.5775 L1217.2689,101.639 L1222.7295,101.639 L1222.7295,104.1097 L1217.2689,104.1097 L1217.2689,107.8337 L1223.3024,107.8337 L1223.3024,110.3044 Z " fill="#000000"/><text fill="#000000" font-family="sans-serif" font-size="13.75" font-style="italic" lengthAdjust="spacing" textLength="93.9583" x="1232.3438" y="100.1866">&#171;05-&#23458;&#25143;&#33829;&#38144;&#187;</text><text fill="#000000" font-family="Microsoft YaHei" font-size="13.75" lengthAdjust="spacing" textLength="89.375" x="1234.6354" y="116.1924">TOUCH_TASK</text><line style="stroke:#181818;stroke-width:0.5729166666666666;" x1="1202.5521" x2="1326.3021" y1="125.1644" y2="125.1644"/><line style="stroke:#181818;stroke-width:1.1458333333333333;stroke-dasharray:1.0,2.0;" x1="1202.5521" x2="1224.3229" y1="143.6678" y2="143.6678"/><text fill="#000000" font-family="sans-serif" font-size="16.0417" lengthAdjust="spacing" textLength="80.2083" x="1224.3229" y="148.6484">&#35302;&#36798;&#20219;&#21153;&#34920;</text><line style="stroke:#181818;stroke-width:1.1458333333333333;stroke-dasharray:1.0,2.0;" x1="1304.5313" x2="1326.3021" y1="143.6678" y2="143.6678"/></g><!--reverse link BIZ_PROCESS_MAP to BIZ_FILE_REL--><g id="link_BIZ_PROCESS_MAP_BIZ_FILE_REL"><path codeLine="70" d="M842.7604,221.0709 C842.7604,197.5096 842.7604,182.0009 842.7604,162.1513 " fill="none" id="BIZ_PROCESS_MAP-backto-BIZ_FILE_REL" style="stroke:#181818;stroke-width:1.1458333333333333;stroke-dasharray:7.0,7.0;"/><line style="stroke:#181818;stroke-width:1.1458333333333333;" x1="842.7604" x2="851.9271" y1="221.0709" y2="230.2375"/><line style="stroke:#181818;stroke-width:1.1458333333333333;" x1="842.7604" x2="833.5938" y1="221.0709" y2="230.2375"/><line style="stroke:#181818;stroke-width:1.1458333333333333;" x1="842.7604" x2="842.7604" y1="221.0709" y2="230.2375"/><text fill="#000000" font-family="sans-serif" font-size="14.8958" lengthAdjust="spacing" textLength="41.25" x="800.3646" y="211.167">biz_id</text></g><!--reverse link BIZ_PROCESS_MAP to ACT_RE_PROCDEF--><g id="link_BIZ_PROCESS_MAP_ACT_RE_PROCDEF"><path codeLine="71" d="M728.6468,242.111 C572.1714,242.111 305.0781,242.111 305.0781,242.111 C305.0781,242.111 305.0781,197.1476 305.0781,162.1955 " fill="none" id="BIZ_PROCESS_MAP-backto-ACT_RE_PROCDEF" style="stroke:#181818;stroke-width:1.1458333333333333;stroke-dasharray:7.0,7.0;"/><line style="stroke:#181818;stroke-width:1.1458333333333333;" x1="728.6468" x2="737.8134" y1="242.111" y2="232.9443"/><line style="stroke:#181818;stroke-width:1.1458333333333333;" x1="728.6468" x2="737.8134" y1="242.111" y2="251.2777"/><line style="stroke:#181818;stroke-width:1.1458333333333333;" x1="728.6468" x2="737.8134" y1="242.111" y2="242.111"/><text fill="#000000" font-family="sans-serif" font-size="14.8958" lengthAdjust="spacing" textLength="165" x="315.3422" y="237.6043">process_definition_key</text></g><!--reverse link BIZ_PROCESS_MAP to ACT_RU_EXECUTION--><g id="link_BIZ_PROCESS_MAP_ACT_RU_EXECUTION"><path codeLine="72" d="M933.5677,221.0709 C933.5677,169.5179 933.5677,121.7985 933.5677,121.7985 C933.5677,121.7985 944.6054,121.7985 960.1703,121.7985 " fill="none" id="BIZ_PROCESS_MAP-backto-ACT_RU_EXECUTION" style="stroke:#181818;stroke-width:1.1458333333333333;stroke-dasharray:7.0,7.0;"/><line style="stroke:#181818;stroke-width:1.1458333333333333;" x1="933.5677" x2="942.7344" y1="221.0709" y2="230.2375"/><line style="stroke:#181818;stroke-width:1.1458333333333333;" x1="933.5677" x2="924.401" y1="221.0709" y2="230.2375"/><line style="stroke:#181818;stroke-width:1.1458333333333333;" x1="933.5677" x2="933.5677" y1="221.0709" y2="230.2375"/><text fill="#000000" font-family="sans-serif" font-size="14.8958" lengthAdjust="spacing" textLength="147.8125" x="784.6094" y="177.6892">process_instance_id</text></g><!--reverse link CUST_LEAD to BIZ_PROCESS_MAP--><g id="link_CUST_LEAD_BIZ_PROCESS_MAP"><path codeLine="73" d="M711.849,171.2783 C711.849,203.8836 711.849,235.236 711.849,235.236 C711.849,235.236 722.4939,235.236 737.7128,235.236 " fill="none" id="CUST_LEAD-backto-BIZ_PROCESS_MAP" style="stroke:#181818;stroke-width:1.1458333333333333;stroke-dasharray:7.0,7.0;"/><line style="stroke:#181818;stroke-width:1.1458333333333333;" x1="711.849" x2="702.6823" y1="171.2783" y2="162.1117"/><line style="stroke:#181818;stroke-width:1.1458333333333333;" x1="711.849" x2="721.0156" y1="171.2783" y2="162.1117"/><line style="stroke:#181818;stroke-width:1.1458333333333333;" x1="711.849" x2="711.849" y1="171.2783" y2="162.1117"/><text fill="#000000" font-family="sans-serif" font-size="14.8958" lengthAdjust="spacing" textLength="97.3958" x="638.2292" y="226.5783">business_key</text></g><!--reverse link LEAD_IMPORT_BATCH to BIZ_PROCESS_MAP--><g id="link_LEAD_IMPORT_BATCH_BIZ_PROCESS_MAP"><path codeLine="74" d="M527.4652,171.1869 C527.4652,204.9947 527.4652,238.6735 527.4652,238.6735 C527.4652,238.6735 646.0521,238.6735 737.7717,238.6735 " fill="none" id="LEAD_IMPORT_BATCH-backto-BIZ_PROCESS_MAP" style="stroke:#181818;stroke-width:1.1458333333333333;stroke-dasharray:7.0,7.0;"/><line style="stroke:#181818;stroke-width:1.1458333333333333;" x1="527.4652" x2="518.2986" y1="171.1869" y2="162.0202"/><line style="stroke:#181818;stroke-width:1.1458333333333333;" x1="527.4652" x2="536.6319" y1="171.1869" y2="162.0202"/><line style="stroke:#181818;stroke-width:1.1458333333333333;" x1="527.4652" x2="527.4652" y1="171.1869" y2="162.0202"/><text fill="#000000" font-family="sans-serif" font-size="14.8958" lengthAdjust="spacing" textLength="97.3958" x="495.7502" y="234.1668">business_key</text></g><!--reverse link LOAN_APPLY to BIZ_PROCESS_MAP--><g id="link_LOAN_APPLY_BIZ_PROCESS_MAP"><path codeLine="75" d="M2193.6979,171.4563 C2193.6979,241.1024 2193.6979,367.0068 2193.6979,367.0068 C2193.6979,367.0068 1265.0508,367.0068 947.6421,367.0068 " fill="none" id="LOAN_APPLY-backto-BIZ_PROCESS_MAP" style="stroke:#181818;stroke-width:1.1458333333333333;stroke-dasharray:7.0,7.0;"/><line style="stroke:#181818;stroke-width:1.1458333333333333;" x1="2193.6979" x2="2184.5313" y1="171.4563" y2="162.2896"/><line style="stroke:#181818;stroke-width:1.1458333333333333;" x1="2193.6979" x2="2202.8646" y1="171.4563" y2="162.2896"/><line style="stroke:#181818;stroke-width:1.1458333333333333;" x1="2193.6979" x2="2193.6979" y1="171.4563" y2="162.2896"/><text fill="#000000" font-family="sans-serif" font-size="14.8958" lengthAdjust="spacing" textLength="97.3958" x="1574.4869" y="362.5002">business_key</text></g><!--reverse link PERF_ALLOC_ADJUST_APPLY to BIZ_PROCESS_MAP--><g id="link_PERF_ALLOC_ADJUST_APPLY_BIZ_PROCESS_MAP"><path codeLine="76" d="M1975.9896,171.4043 C1975.9896,234.3638 1975.9896,339.5068 1975.9896,339.5068 C1975.9896,339.5068 1228.7802,339.5068 947.847,339.5068 " fill="none" id="PERF_ALLOC_ADJUST_APPLY-backto-BIZ_PROCESS_MAP" style="stroke:#181818;stroke-width:1.1458333333333333;stroke-dasharray:7.0,7.0;"/><line style="stroke:#181818;stroke-width:1.1458333333333333;" x1="1975.9896" x2="1966.8229" y1="171.4043" y2="162.2376"/><line style="stroke:#181818;stroke-width:1.1458333333333333;" x1="1975.9896" x2="1985.1562" y1="171.4043" y2="162.2376"/><line style="stroke:#181818;stroke-width:1.1458333333333333;" x1="1975.9896" x2="1975.9896" y1="171.4043" y2="162.2376"/><text fill="#000000" font-family="sans-serif" font-size="14.8958" lengthAdjust="spacing" textLength="97.3958" x="1452.0112" y="335.0002">business_key</text></g><!--reverse link PERF_TARGET_ADJUST_APPLY to BIZ_PROCESS_MAP--><g id="link_PERF_TARGET_ADJUST_APPLY_BIZ_PROCESS_MAP"><path codeLine="77" d="M1702.1354,171.3034 C1702.1354,227.1374 1702.1354,312.0068 1702.1354,312.0068 C1702.1354,312.0068 1176.9586,312.0068 947.7067,312.0068 " fill="none" id="PERF_TARGET_ADJUST_APPLY-backto-BIZ_PROCESS_MAP" style="stroke:#181818;stroke-width:1.1458333333333333;stroke-dasharray:7.0,7.0;"/><line style="stroke:#181818;stroke-width:1.1458333333333333;" x1="1702.1354" x2="1692.9688" y1="171.3034" y2="162.1368"/><line style="stroke:#181818;stroke-width:1.1458333333333333;" x1="1702.1354" x2="1711.3021" y1="171.3034" y2="162.1368"/><line style="stroke:#181818;stroke-width:1.1458333333333333;" x1="1702.1354" x2="1702.1354" y1="171.3034" y2="162.1368"/><text fill="#000000" font-family="sans-serif" font-size="14.8958" lengthAdjust="spacing" textLength="97.3958" x="1301.3144" y="307.5002">business_key</text></g><!--reverse link SUPPORT_REQUEST to BIZ_PROCESS_MAP--><g id="link_SUPPORT_REQUEST_BIZ_PROCESS_MAP"><path codeLine="78" d="M1454.6354,171.4684 C1454.6354,219.9903 1454.6354,285.6527 1454.6354,285.6527 C1454.6354,285.6527 1122.8896,285.6527 947.9455,285.6527 " fill="none" id="SUPPORT_REQUEST-backto-BIZ_PROCESS_MAP" style="stroke:#181818;stroke-width:1.1458333333333333;stroke-dasharray:7.0,7.0;"/><line style="stroke:#181818;stroke-width:1.1458333333333333;" x1="1454.6354" x2="1445.4688" y1="171.4684" y2="162.3018"/><line style="stroke:#181818;stroke-width:1.1458333333333333;" x1="1454.6354" x2="1463.8021" y1="171.4684" y2="162.3018"/><line style="stroke:#181818;stroke-width:1.1458333333333333;" x1="1454.6354" x2="1454.6354" y1="171.4684" y2="162.3018"/><text fill="#000000" font-family="sans-serif" font-size="14.8958" lengthAdjust="spacing" textLength="97.3958" x="1164.4242" y="281.146">business_key</text></g><!--reverse link TOUCH_TASK to BIZ_PROCESS_MAP--><g id="link_TOUCH_TASK_BIZ_PROCESS_MAP"><path codeLine="79" d="M1264.4271,171.1384 C1264.4271,211.3596 1264.4271,258.1527 1264.4271,258.1527 C1264.4271,258.1527 1072.9717,258.1527 948.0771,258.1527 " fill="none" id="TOUCH_TASK-backto-BIZ_PROCESS_MAP" style="stroke:#181818;stroke-width:1.1458333333333333;stroke-dasharray:7.0,7.0;"/><line style="stroke:#181818;stroke-width:1.1458333333333333;" x1="1264.4271" x2="1255.2604" y1="171.1384" y2="161.9718"/><line style="stroke:#181818;stroke-width:1.1458333333333333;" x1="1264.4271" x2="1273.5938" y1="171.1384" y2="161.9718"/><line style="stroke:#181818;stroke-width:1.1458333333333333;" x1="1264.4271" x2="1264.4271" y1="171.1384" y2="161.9718"/><text fill="#000000" font-family="sans-serif" font-size="14.8958" lengthAdjust="spacing" textLength="97.3958" x="1055.8009" y="253.646">business_key</text></g><!--reverse link WF_NODE_CANDIDATE_CONF to ACT_RE_PROCDEF--><g id="link_WF_NODE_CANDIDATE_CONF_ACT_RE_PROCDEF"><path codeLine="80" d="M495.191,240.334 C495.191,240.334 274.4271,246.6943 274.4271,246.6943 C274.4271,246.6943 274.4271,198.5148 274.4271,162.0038 " fill="none" id="WF_NODE_CANDIDATE_CONF-backto-ACT_RE_PROCDEF" style="stroke:#181818;stroke-width:1.1458333333333333;stroke-dasharray:7.0,7.0;"/><line style="stroke:#181818;stroke-width:1.1458333333333333;" x1="495.191" x2="504.3577" y1="240.334" y2="249.5007"/><line style="stroke:#181818;stroke-width:1.1458333333333333;" x1="495.191" x2="486.0243" y1="240.334" y2="249.5007"/><line style="stroke:#181818;stroke-width:1.1458333333333333;" x1="495.191" x2="495.191" y1="240.334" y2="249.5007"/><text fill="#000000" font-family="sans-serif" font-size="14.8958" lengthAdjust="spacing" textLength="165" x="177.7212" y="242.1877">process_definition_key</text></g><!--reverse link WF_NODE_CANDIDATE_CONF to WF_NODE_FORM_CONF--><g id="link_WF_NODE_CANDIDATE_CONF_WF_NODE_FORM_CONF"><path codeLine="81" d="M580.3646,383.7965 C580.3646,411.3492 580.3646,434.4732 580.3646,462.0166 " fill="none" id="WF_NODE_CANDIDATE_CONF-backto-WF_NODE_FORM_CONF" style="stroke:#181818;stroke-width:1.1458333333333333;stroke-dasharray:7.0,7.0;"/><line style="stroke:#181818;stroke-width:1.1458333333333333;" x1="580.3646" x2="571.1979" y1="383.7965" y2="374.6298"/><line style="stroke:#181818;stroke-width:1.1458333333333333;" x1="580.3646" x2="589.5313" y1="383.7965" y2="374.6298"/><line style="stroke:#181818;stroke-width:1.1458333333333333;" x1="580.3646" x2="580.3646" y1="383.7965" y2="374.6298"/><text fill="#000000" font-family="sans-serif" font-size="14.8958" lengthAdjust="spacing" textLength="69.8958" x="509.3229" y="413.8165">node_key</text></g><!--reverse link WF_NODE_FORM_CONF to ACT_RE_PROCDEF--><g id="link_WF_NODE_FORM_CONF_ACT_RE_PROCDEF"><path codeLine="82" d="M466.0636,545.7568 C345.7088,545.7568 174.1667,545.7568 174.1667,545.7568 C174.1667,545.7568 174.1667,267.8928 174.1667,162.0657 " fill="none" id="WF_NODE_FORM_CONF-backto-ACT_RE_PROCDEF" style="stroke:#181818;stroke-width:1.1458333333333333;stroke-dasharray:7.0,7.0;"/><line style="stroke:#181818;stroke-width:1.1458333333333333;" x1="466.0636" x2="475.2302" y1="545.7568" y2="536.5902"/><line style="stroke:#181818;stroke-width:1.1458333333333333;" x1="466.0636" x2="475.2302" y1="545.7568" y2="554.9235"/><line style="stroke:#181818;stroke-width:1.1458333333333333;" x1="466.0636" x2="475.2302" y1="545.7568" y2="545.7568"/><text fill="#000000" font-family="sans-serif" font-size="14.8958" lengthAdjust="spacing" textLength="165" x="8.0208" y="499.9363">process_definition_key</text></g><!--reverse link WF_TIMEOUT_RULE to ACT_RE_PROCDEF--><g id="link_WF_TIMEOUT_RULE_ACT_RE_PROCDEF"><path codeLine="83" d="M243.776,240.0317 C243.776,211.4643 243.776,187.652 243.776,162.406 " fill="none" id="WF_TIMEOUT_RULE-backto-ACT_RE_PROCDEF" style="stroke:#181818;stroke-width:1.1458333333333333;stroke-dasharray:7.0,7.0;"/><line style="stroke:#181818;stroke-width:1.1458333333333333;" x1="243.776" x2="252.9427" y1="240.0317" y2="249.1983"/><line style="stroke:#181818;stroke-width:1.1458333333333333;" x1="243.776" x2="234.6094" y1="240.0317" y2="249.1983"/><line style="stroke:#181818;stroke-width:1.1458333333333333;" x1="243.776" x2="243.776" y1="240.0317" y2="249.1983"/><text fill="#000000" font-family="sans-serif" font-size="14.8958" lengthAdjust="spacing" textLength="165" x="77.6302" y="201.2955">process_definition_key</text></g><!--reverse link WF_TIMEOUT_RULE to WF_NODE_FORM_CONF--><g id="link_WF_TIMEOUT_RULE_WF_NODE_FORM_CONF"><path codeLine="84" d="M317.9688,383.6728 C317.9688,439.8815 317.9688,504.5068 317.9688,504.5068 C317.9688,504.5068 402.1496,504.5068 475.15,504.5068 " fill="none" id="WF_TIMEOUT_RULE-backto-WF_NODE_FORM_CONF" style="stroke:#181818;stroke-width:1.1458333333333333;stroke-dasharray:7.0,7.0;"/><line style="stroke:#181818;stroke-width:1.1458333333333333;" x1="317.9688" x2="308.8021" y1="383.6728" y2="374.5061"/><line style="stroke:#181818;stroke-width:1.1458333333333333;" x1="317.9688" x2="327.1354" y1="383.6728" y2="374.5061"/><line style="stroke:#181818;stroke-width:1.1458333333333333;" x1="317.9688" x2="317.9688" y1="383.6728" y2="374.5061"/><text fill="#000000" font-family="sans-serif" font-size="14.8958" lengthAdjust="spacing" textLength="69.8958" x="260.5174" y="500.0002">node_key</text></g><!--SRC=[jLLTRzD857tFhnYL5n0AjA22Y03993OD97587EsoBvP93LWDTXHxXGggb7waf5qAh3RPRbbW6tQx3GXIHA4jSJ_-oyepTfxu2unjaZY97QMWbLyyzzuvvyoTU-VA4uAOvNBS7J2U5S38oB1FRbdI6KwMAKbKOjmT7aI5T4wIfPiAkCwDyO9RN5AunuEHKmvNbajFSBVuf3APuK6EJokSU2l3Em8oWiWharaUI3dbjkHJ10K73f_sm-qrRUyP-ZYjxRo51xFWltm9mFb2OxPgLAhQpYDZkugg5VXy6UwMzL8L73LMdkhrWmkDl6hi_teIrbwOAttXbVva_fZFzrK76Eg57W97gDFaA3KAxli0u4KiOH8CNGh_nCOJT91C9jae4Hy2d0owR5Oy02TE06tdALoiO4Iz-WlwOnM-cyCYiSFonwy6W31k_Hu7DtwMyO5bcPtW9vicuHxRycTpKjfqZ_Ct1L5G14bqH3QTWYZZFAPvUzkKG_KF51kZGoGR96AXS8XWy1yTeopnxgxs6MprnkACFlC9vbSQ-GMjNcyKblIzcjTX-eeLfN7-wz9D8KKdehtYMbPtNLW8N2h_BwAOS9IaKmoRI4N8fYIdhKVGLW4jRndhSx2uylrIfXmL2l_v7LUvNToVTujsVSEbLMrlwVFkWbcjXFbrL2iHn2f9gpX3f9tIJXCuVtxud9_AI7Uv6naUOwBV7Xs5ZryR6-gnYnVRXxFFCTKDdMB97ybWYWdJiJQum_Zjy6PFKU48YRL6MatMD9Ymf_pwfgghVw7tAcvbksMTa7Rl-HihSvgw1GkRndIfTHzEec0goR0HaWXPBAsLIJ7gXxMNgBXjF5bhbF9ESDkENnBzmqjNL1E23KVZT89XBn5CSCn2xx7sPx7nuSOkBAoXXK_eJSMTYoPYB16FHwxR9AsbYNx6RoT2BsqQ6zjETEFZd5PVHujbLDgtlQxeSJ91iKGaGWTP8dJ5J4-RoiDdyfxrw-ehL2uQjOfUM-x8NN4UTog-4Nn_nhjPLFvWitjGCqJYCibuSBiu-vFhVzRGwWFje8RU_kr5cqp5hHjAaDTIP9AnsBfi_JDh5kEpEYfje8VJVJBBqAdW63v2ygf5qLxshmfZ_LzZVrzJLSpjmCLFHVSSciBH7MqJQ0uLjyYkXo7WzKnvxdNsVS1rABMxgodD2HJed8AzpJB8fdRn3n3jLR-3RdKhlm7sTXVJ05iSnJ50jCTCFymjzu7e7Sg1zjJgTHwIjMEuVk_UVbA_0000]--></g></svg>