<?xml version="1.0" encoding="us-ascii" standalone="no"?><svg xmlns="http://www.w3.org/2000/svg" xmlns:xlink="http://www.w3.org/1999/xlink" contentStyleType="text/css" height="947.6042px" preserveAspectRatio="none" style="width:1276px;height:947px;background:#FFFFFF;" version="1.1" viewBox="0 0 1276 947" width="1276.4583px" zoomAndPan="magnify"><defs/><g><text fill="#000000" font-family="sans-serif" font-size="16.0417" font-weight="bold" lengthAdjust="spacing" textLength="423.9583" x="418.2292" y="26.3486">yiti &#27169;&#22359;&#20381;&#36182;&#24635;&#35272; &#8212; &#36328;&#27169;&#22359;&#20851;&#31995;&#24378;&#24230;&#65288;&#26465;&#25968;=&#36923;&#36753;+&#29289;&#29702;&#65289;</text><rect fill="#E3F2FD" height="97.6107" rx="2.8646" ry="2.8646" style="stroke:#181818;stroke-width:0.5729166666666666;" width="148.9583" x="1120.625" y="448.3013"/><text fill="#000000" font-family="sans-serif" font-size="16.0417" font-weight="bold" lengthAdjust="spacing" textLength="126.0417" x="1132.0833" y="465.4832">01-&#35748;&#35777;&#25480;&#26435;&#20013;&#24515;</text><text fill="#000000" font-family="sans-serif" font-size="16.0417" font-weight="bold" lengthAdjust="spacing" textLength="63.0208" x="1132.0833" y="484.1567">(8 &#24352;&#34920;)</text><rect fill="#FFF3E0" height="97.6107" rx="2.8646" ry="2.8646" style="stroke:#181818;stroke-width:0.5729166666666666;" width="148.9583" x="851.3542" y="324.5513"/><text fill="#000000" font-family="sans-serif" font-size="16.0417" font-weight="bold" lengthAdjust="spacing" textLength="126.0417" x="862.8125" y="341.7332">02-&#31995;&#32479;&#27835;&#29702;&#20013;&#24515;</text><text fill="#000000" font-family="sans-serif" font-size="16.0417" font-weight="bold" lengthAdjust="spacing" textLength="74.4792" x="862.8125" y="360.4067">(10 &#24352;&#34920;)</text><rect fill="#F3E5F5" height="97.6107" rx="2.8646" ry="2.8646" style="stroke:#181818;stroke-width:0.5729166666666666;" width="132.9167" x="598.125" y="362.3638"/><text fill="#000000" font-family="sans-serif" font-size="16.0417" font-weight="bold" lengthAdjust="spacing" textLength="110" x="609.5833" y="379.5457">03-&#24037;&#20316;&#27969;&#20013;&#24515;</text><text fill="#000000" font-family="sans-serif" font-size="16.0417" font-weight="bold" lengthAdjust="spacing" textLength="63.0208" x="609.5833" y="398.2192">(4 &#24352;&#34920;)</text><rect fill="#E8F5E9" height="97.6107" rx="2.8646" ry="2.8646" style="stroke:#181818;stroke-width:0.5729166666666666;" width="132.9167" x="430.8333" y="70.1763"/><text fill="#000000" font-family="sans-serif" font-size="16.0417" font-weight="bold" lengthAdjust="spacing" textLength="110" x="442.2917" y="87.3582">04-&#38376;&#25143;&#19982;&#20869;&#23481;</text><text fill="#000000" font-family="sans-serif" font-size="16.0417" font-weight="bold" lengthAdjust="spacing" textLength="63.0208" x="442.2917" y="106.0317">(5 &#24352;&#34920;)</text><rect fill="#FFEBEE" height="97.6107" rx="2.8646" ry="2.8646" style="stroke:#181818;stroke-width:0.5729166666666666;" width="116.875" x="279.5833" y="542.2596"/><text fill="#000000" font-family="sans-serif" font-size="16.0417" font-weight="bold" lengthAdjust="spacing" textLength="93.9583" x="291.0417" y="559.4415">05-&#23458;&#25143;&#33829;&#38144;</text><text fill="#000000" font-family="sans-serif" font-size="16.0417" font-weight="bold" lengthAdjust="spacing" textLength="63.0208" x="291.0417" y="578.115">(8 &#24352;&#34920;)</text><rect fill="#FBE9E7" height="97.6107" rx="2.8646" ry="2.8646" style="stroke:#181818;stroke-width:0.5729166666666666;" width="116.875" x="45.2604" y="232.8846"/><text fill="#000000" font-family="sans-serif" font-size="16.0417" font-weight="bold" lengthAdjust="spacing" textLength="93.9583" x="56.7187" y="250.0665">06-&#19994;&#21153;&#30003;&#35831;</text><text fill="#000000" font-family="sans-serif" font-size="16.0417" font-weight="bold" lengthAdjust="spacing" textLength="63.0208" x="56.7187" y="268.74">(2 &#24352;&#34920;)</text><rect fill="#E0F7FA" height="97.6107" rx="2.8646" ry="2.8646" style="stroke:#181818;stroke-width:0.5729166666666666;" width="116.875" x="45.2604" y="619.0305"/><text fill="#000000" font-family="sans-serif" font-size="16.0417" font-weight="bold" lengthAdjust="spacing" textLength="93.9583" x="56.7187" y="636.2124">07-&#32489;&#25928;&#35745;&#31639;</text><text fill="#000000" font-family="sans-serif" font-size="16.0417" font-weight="bold" lengthAdjust="spacing" textLength="74.4792" x="56.7187" y="654.8859">(17 &#24352;&#34920;)</text><rect fill="#F1F8E9" height="97.6107" rx="2.8646" ry="2.8646" style="stroke:#181818;stroke-width:0.5729166666666666;" width="116.875" x="867.3958" y="843.6138"/><text fill="#000000" font-family="sans-serif" font-size="16.0417" font-weight="bold" lengthAdjust="spacing" textLength="93.9583" x="878.8542" y="860.7957">08-&#25253;&#34920;&#20998;&#26512;</text><text fill="#000000" font-family="sans-serif" font-size="16.0417" font-weight="bold" lengthAdjust="spacing" textLength="63.0208" x="878.8542" y="879.4692">(4 &#24352;&#34920;)</text><rect fill="#ECEFF1" height="97.6107" rx="2.8646" ry="2.8646" style="stroke:#181818;stroke-width:0.5729166666666666;" width="210.8333" x="820.4167" y="462.0513"/><text fill="#000000" font-family="sans-serif" font-size="16.0417" font-weight="bold" lengthAdjust="spacing" textLength="187.9167" x="831.875" y="479.2332">09-Flowable&#24341;&#25806;(&#21482;&#35835;)</text><text fill="#000000" font-family="sans-serif" font-size="16.0417" font-weight="bold" lengthAdjust="spacing" textLength="74.4792" x="831.875" y="497.9067">(36 &#24352;&#34920;)</text><rect fill="#ECEFF1" height="97.6107" rx="2.8646" ry="2.8646" style="stroke:#181818;stroke-width:0.5729166666666666;" width="191.3542" x="8.0208" y="95.3846"/><text fill="#000000" font-family="sans-serif" font-size="16.0417" font-weight="bold" lengthAdjust="spacing" textLength="168.4375" x="19.4792" y="112.5665">10-Quartz&#35843;&#24230;(&#21482;&#35835;)</text><text fill="#000000" font-family="sans-serif" font-size="16.0417" font-weight="bold" lengthAdjust="spacing" textLength="74.4792" x="19.4792" y="131.24">(11 &#24352;&#34920;)</text><!--link performance_engine_center to auth_permission_center--><g id="link_performance_engine_center_auth_permission_center"><path codeLine="18" d="M162.5074,714.9954 C207.7377,746.5586 273.2642,782.3117 338.0208,782.3117 C338.0208,782.3117 338.0208,782.3117 925.8333,782.3117 C1054.391,782.3117 1136.98,633.5 1172.9589,552.0113 " fill="none" id="performance_engine_center-to-auth_permission_center" style="stroke:#181818;stroke-width:1.1458333333333333;"/><polygon fill="#181818" points="1175.7357,545.722,1167.3776,553.3047,1173.4217,550.9631,1175.7633,557.0071,1175.7357,545.722" style="stroke:#181818;stroke-width:1.1458333333333333;"/><text fill="#000000" font-family="sans-serif" font-size="14.8958" lengthAdjust="spacing" textLength="18.3333" x="655.4167" y="777.805">23</text></g><!--link system_governance_center to auth_permission_center--><g id="link_system_governance_center_auth_permission_center"><path codeLine="19" d="M1000.4827,407.5562 C1037.8371,424.7233 1076.6883,442.5783 1114.0627,459.7547 " fill="none" id="system_governance_center-to-auth_permission_center" style="stroke:#181818;stroke-width:1.1458333333333333;"/><polygon fill="#181818" points="1120.3096,462.6256,1112.8532,454.1546,1115.1038,460.2332,1109.0253,462.4838,1120.3096,462.6256" style="stroke:#181818;stroke-width:1.1458333333333333;"/><text fill="#000000" font-family="sans-serif" font-size="14.8958" lengthAdjust="spacing" textLength="18.3333" x="1066.7708" y="435.2009">14</text></g><!--link customer_marketing_center to auth_permission_center--><g id="link_customer_marketing_center_auth_permission_center"><path codeLine="20" d="M396.6636,598.6738 C517.5202,612.6962 802.1905,635.9906 1031.25,579.4992 C1061.8635,571.9492 1087.2346,561.13 1114.2841,546.7382 " fill="none" id="customer_marketing_center-to-auth_permission_center" style="stroke:#181818;stroke-width:1.1458333333333333;"/><polygon fill="#181818" points="1120.3536,543.5089,1109.0966,544.3065,1115.2957,546.2,1113.4023,552.3991,1120.3536,543.5089" style="stroke:#181818;stroke-width:1.1458333333333333;"/><text fill="#000000" font-family="sans-serif" font-size="14.8958" lengthAdjust="spacing" textLength="18.3333" x="766.5625" y="609.3675">14</text></g><!--link portal_content_center to auth_permission_center--><g id="link_portal_content_center_auth_permission_center"><path codeLine="21" d="M564.022,103.2958 C682.8958,79.7331 933.1716,49.611 1086.25,170.4367 C1130.4624,205.3339 1167.1897,359.1626 1184.2188,441.4073 " fill="none" id="portal_content_center-to-auth_permission_center" style="stroke:#181818;stroke-width:1.1458333333333333;"/><polygon fill="#181818" points="1185.6128,448.1395,1188.01,437.1119,1184.4512,442.5293,1179.0337,438.9705,1185.6128,448.1395" style="stroke:#181818;stroke-width:1.1458333333333333;"/><text fill="#000000" font-family="sans-serif" font-size="14.8958" lengthAdjust="spacing" textLength="18.3333" x="766.5625" y="77.7009">12</text></g><!--link business_application_center to auth_permission_center--><g id="link_business_application_center_auth_permission_center"><path codeLine="22" d="M162.4381,248.9615 C208.6977,226.3281 275.5792,200.2284 338.0208,200.2284 C338.0208,200.2284 338.0208,200.2284 925.8333,200.2284 C1058.0166,200.2284 1139.7002,357.3445 1174.3812,441.6357 " fill="none" id="business_application_center-to-auth_permission_center" style="stroke:#181818;stroke-width:1.1458333333333333;"/><polygon fill="#181818" points="1176.9971,447.9935,1177.3119,436.7128,1174.8172,442.6953,1168.8347,440.2007,1176.9971,447.9935" style="stroke:#181818;stroke-width:1.1458333333333333;"/><text fill="#000000" font-family="sans-serif" font-size="14.8958" lengthAdjust="spacing" textLength="9.1667" x="660" y="195.7217">6</text></g><!--link workflow_center to flowable_engine--><g id="link_workflow_center_flowable_engine"><path codeLine="23" d="M731.1838,436.475 C758.2441,446.8007 783.7515,456.5338 813.8395,468.0148 " fill="none" id="workflow_center-to-flowable_engine" style="stroke:#181818;stroke-width:1.1458333333333333;"/><polygon fill="#181818" points="820.2628,470.4657,812.2619,462.5071,814.9101,468.4233,808.9939,471.0714,820.2628,470.4657" style="stroke:#181818;stroke-width:1.1458333333333333;"/><text fill="#000000" font-family="sans-serif" font-size="14.8958" lengthAdjust="spacing" textLength="9.1667" x="771.1458" y="447.805">5</text></g><!--link performance_engine_center to customer_marketing_center--><g id="link_performance_engine_center_customer_marketing_center"><path codeLine="24" d="M162.2231,648.5539 C198.0099,636.8292 237.0975,624.0229 272.8964,612.2942 " fill="none" id="performance_engine_center-to-customer_marketing_center" style="stroke:#181818;stroke-width:1.1458333333333333;"/><polygon fill="#181818" points="279.4297,610.1537,268.2027,609.0089,273.9853,611.9374,271.0567,617.72,279.4297,610.1537" style="stroke:#181818;stroke-width:1.1458333333333333;"/><text fill="#000000" font-family="sans-serif" font-size="14.8958" lengthAdjust="spacing" textLength="9.1667" x="234.8958" y="618.5342">3</text></g><!--link customer_marketing_center to workflow_center--><g id="link_customer_marketing_center_workflow_center"><path codeLine="25" d="M396.8015,546.405 C407.7654,539.2417 419.3841,532.3626 430.8333,526.7909 C486.4506,499.7247 508.5629,513.4738 563.75,485.5409 C577.925,478.3663 586.6167,473.2178 599.8036,463.8179 " fill="none" id="customer_marketing_center-to-workflow_center" style="stroke:#181818;stroke-width:1.1458333333333333;"/><polygon fill="#181818" points="605.4018,459.8274,594.344,462.081,600.7366,463.1528,599.6648,469.5454,605.4018,459.8274" style="stroke:#181818;stroke-width:1.1458333333333333;"/><text fill="#000000" font-family="sans-serif" font-size="14.8958" lengthAdjust="spacing" textLength="9.1667" x="492.7083" y="481.0342">3</text></g><!--link report_analytics_center to auth_permission_center--><g id="link_report_analytics_center_auth_permission_center"><path codeLine="26" d="M984.3545,883.1124 C1018.2668,874.9366 1059.429,859.7047 1086.25,831.5826 C1162.5567,751.5739 1184.7255,624.2907 1191.5469,552.5676 " fill="none" id="report_analytics_center-to-auth_permission_center" style="stroke:#181818;stroke-width:1.1458333333333333;"/><polygon fill="#181818" points="1192.1979,545.7235,1186.6587,555.5557,1191.6554,551.4269,1195.7842,556.4236,1192.1979,545.7235" style="stroke:#181818;stroke-width:1.1458333333333333;"/><text fill="#000000" font-family="sans-serif" font-size="14.8958" lengthAdjust="spacing" textLength="9.1667" x="1071.3542" y="827.0759">3</text></g><!--link customer_marketing_center to flowable_engine--><g id="link_customer_marketing_center_flowable_engine"><path codeLine="27" d="M396.5316,582.9736 C495.2646,569.5013 689.4669,543.0019 813.3809,526.0936 " fill="none" id="customer_marketing_center-to-flowable_engine" style="stroke:#181818;stroke-width:1.1458333333333333;"/><polygon fill="#181818" points="820.1928,525.1641,809.3553,522.0171,814.5162,525.9387,810.5946,531.0996,820.1928,525.1641" style="stroke:#181818;stroke-width:1.1458333333333333;"/><text fill="#000000" font-family="sans-serif" font-size="14.8958" lengthAdjust="spacing" textLength="9.1667" x="660" y="533.7425">2</text></g><!--link business_application_center to customer_marketing_center--><g id="link_business_application_center_customer_marketing_center"><path codeLine="28" d="M140.827,330.6039 C184.7035,388.5337 253.1139,478.8555 296.9145,536.6851 " fill="none" id="business_application_center-to-customer_marketing_center" style="stroke:#181818;stroke-width:1.1458333333333333;"/><polygon fill="#181818" points="301.0654,542.1656,298.4926,531.1776,297.6063,537.5985,291.1854,536.7122,301.0654,542.1656" style="stroke:#181818;stroke-width:1.1458333333333333;"/><text fill="#000000" font-family="sans-serif" font-size="14.8958" lengthAdjust="spacing" textLength="9.1667" x="234.8958" y="451.2425">2</text></g><!--link business_application_center to workflow_center--><g id="link_business_application_center_workflow_center"><path codeLine="29" d="M162.4653,299.1198 C196.5214,309.0125 240.3034,321.2716 279.5833,330.8534 C390.521,357.915 514.079,382.5604 591.0977,397.2916 " fill="none" id="business_application_center-to-workflow_center" style="stroke:#181818;stroke-width:1.1458333333333333;"/><polygon fill="#181818" points="597.8503,398.5831,588.5825,392.1441,592.2232,397.5068,586.8604,401.1475,597.8503,398.5831" style="stroke:#181818;stroke-width:1.1458333333333333;"/><text fill="#000000" font-family="sans-serif" font-size="14.8958" lengthAdjust="spacing" textLength="9.1667" x="333.4375" y="326.3467">2</text></g><!--link business_application_center to flowable_engine--><g id="link_business_application_center_flowable_engine"><path codeLine="30" d="M162.3253,280.9764 C274.6565,281.1828 527.1684,288.2758 731.0417,342.3117 C756.8327,349.1475 767.0413,347.6421 786.0417,366.3742 C812.3333,392.2947 796.3574,413.9945 820.4167,441.9992 C826.5392,449.1257 828.2763,451.4222 835.7527,457.5915 " fill="none" id="business_application_center-to-flowable_engine" style="stroke:#181818;stroke-width:1.1458333333333333;"/><polygon fill="#181818" points="841.0554,461.9672,836.0184,451.8685,836.6365,458.3208,830.1842,458.9388,841.0554,461.9672" style="stroke:#181818;stroke-width:1.1458333333333333;"/><text fill="#000000" font-family="sans-serif" font-size="14.8958" lengthAdjust="spacing" textLength="9.1667" x="492.7083" y="289.68">2</text></g><!--link performance_engine_center to workflow_center--><g id="link_performance_engine_center_workflow_center"><path codeLine="31" d="M153.9872,618.9175 C187.5437,588.2391 233.7676,549.4538 279.5833,522.2076 C381.2353,461.7559 510.8683,433.6608 591.0553,420.8795 " fill="none" id="performance_engine_center-to-workflow_center" style="stroke:#181818;stroke-width:1.1458333333333333;"/><polygon fill="#181818" points="597.8446,419.7973,586.9392,416.8944,592.1869,420.6991,588.3821,425.9468,597.8446,419.7973" style="stroke:#181818;stroke-width:1.1458333333333333;"/><text fill="#000000" font-family="sans-serif" font-size="14.8958" lengthAdjust="spacing" textLength="9.1667" x="333.4375" y="464.9925">2</text></g><!--link performance_engine_center to flowable_engine--><g id="link_performance_engine_center_flowable_engine"><path codeLine="32" d="M162.5751,675.8713 C284.2615,690.1757 570.1409,710.6013 786.0417,623.0409 C820.9473,608.8846 849.038,587.6911 874.2823,564.353 " fill="none" id="performance_engine_center-to-flowable_engine" style="stroke:#181818;stroke-width:1.1458333333333333;"/><polygon fill="#181818" points="879.3305,559.6859,868.6468,563.321,875.1236,563.5751,874.8695,570.0519,879.3305,559.6859" style="stroke:#181818;stroke-width:1.1458333333333333;"/><text fill="#000000" font-family="sans-serif" font-size="14.8958" lengthAdjust="spacing" textLength="9.1667" x="492.7083" y="674.68">2</text></g><!--link workflow_center to system_governance_center--><g id="link_workflow_center_system_governance_center"><path codeLine="33" d="M731.1838,401.4222 C767.7681,396.127 806.4503,390.5283 844.2502,385.0573 " fill="none" id="workflow_center-to-system_governance_center" style="stroke:#181818;stroke-width:1.1458333333333333;"/><polygon fill="#181818" points="851.0543,384.0725,840.1916,381.0137,845.3842,384.8932,841.5047,390.0858,851.0543,384.0725" style="stroke:#181818;stroke-width:1.1458333333333333;"/><text fill="#000000" font-family="sans-serif" font-size="14.8958" lengthAdjust="spacing" textLength="9.1667" x="771.1458" y="390.5134">1</text></g><!--link business_application_center to portal_content_center--><g id="link_business_application_center_portal_content_center"><path codeLine="34" d="M162.3137,243.2343 C175.0415,233.893 188.0676,223.5 199.375,212.8326 C217.02,196.186 212.9606,182.9368 233.75,170.4367 C293.8822,134.2809 367.533,123.2201 423.6816,119.9107 " fill="none" id="business_application_center-to-portal_content_center" style="stroke:#181818;stroke-width:1.1458333333333333;"/><polygon fill="#181818" points="430.5447,119.5061,419.9804,115.5375,424.8255,119.8432,420.5197,124.6883,430.5447,119.5061" style="stroke:#181818;stroke-width:1.1458333333333333;"/><text fill="#000000" font-family="sans-serif" font-size="14.8958" lengthAdjust="spacing" textLength="9.1667" x="234.8958" y="161.3467">1</text></g><!--SRC=[XPDVQzDG6CRlyoaEysP30asphjr0mMaEtYY8Lu8GphBJxj3ygUUSEge8ax7HxM9Et1o8KojEEy5kE4RdMkTtaIRDhlOLF9sZRTeckGl9-_pE-ppd2SiJku0eii1yWG15IKYi-wQ0Z3pAuOUyP690iS6HdJDntu1X8iQWO_FxoCBW7Z6emvmi1u_GNKma4uj7xW1ASWiSp9CEWJYsn0aNl1BX17ZLYhkxqphRzO_VUaiD_riP_5tQ0dwz-l-BktBKFcgupLFtzEj5i-pjLhpjmnldOlBizVNssdvxS_MYkIP9Lvk2iOGY-xKl_i5BRqDCBxTEVhX_bX_RundWDZ_vbUh4640Ce29Vq0kOMeGniP5kO9jZ2gvfAap2E-3vYpvWKXORj1iVlPyDSLeNg2G2H5PY75jwpdcAgOri0tUP449LImIPgkpMzrg_ttl7Bxl0oG1lqQ7vhEaizZ2gbeAf86PIFj-fUkLwwsJ3NLrnQxy49XN051pAaQaRuee4f-Sp0rFQT12MajtQPm7pD_VEjvQ68ZEAZ3iMfhg5Q1vpOkVw76gpcXQaJScjatVkUgMzTUGVr0Kj6Q3D5HcnCMCwAXHCOY3UVmjmLflMqa5UMcutzhtjib-hj6ixdVpJGQEOPXrgNIQFxPo0zymcO1hU2k8oihU-9yHkUTNxi3cKFiMTu7Ha8xF4YS5wgoamCnZSj0p5HQ4v4xlDRU_DnhZxwhj_q9WGL7KgWCrUpLrjA5QxhK6e171AGdvGH9G_ym-NHUdxO8eIW3svdDAPiO3dY-QbqIvD2ez3bc-6rNy695KfjCYHGcLI2Yz8d79qIQDLIIcgGf7QAMdmv-gC3zxD34Z5f1XkU0QeCN4CRj1HX9KkqapSGSEsufEBCXQl7hOMhncrPNJueqw9LemwOrGHGdy0qRfO8wEhB9J_0000]--></g></svg>